<?xml version="1.0" encoding="utf-8"?>
<!-- Svg Vector Icons : http://www.onlinewebfonts.com/icon -->
<!DOCTYPE svg PUBLIC "-//W3C//DTD SVG 1.1//EN" "http://www.w3.org/Graphics/SVG/1.1/DTD/svg11.dtd">
<svg version="1.1" xmlns="http://www.w3.org/2000/svg" xmlns:xlink="http://www.w3.org/1999/xlink" x="0px" y="0px" viewBox="0 0 256 256" enable-background="new 0 0 256 256" xml:space="preserve">
<metadata> Svg Vector Icons : http://www.onlinewebfonts.com/icon </metadata>
<g><g><g><path fill="#000000" d="M123.1,10.9c-7.5,2.7-14.6,11.1-20.3,24c-3.7,8.5-8.1,22.3-9.9,31.7c-0.3,1.8-0.7,2.8-1.1,2.7c-2.1-0.8-14.5-4.2-18.6-5.2c-12.6-2.8-26.2-3.6-33.1-1.9c-7.2,1.8-11,4.3-13.2,9c-1.4,2.8-1.5,3.5-1.5,6.8c0.1,7.6,4.3,16.4,13.3,27.7c3.6,4.5,14.6,15.9,19.6,20.2l2.4,2.2l-2.4,2.2c-5,4.3-16,15.7-19.6,20.2c-8.9,11.2-13.2,20.2-13.3,27.7c-0.2,17.7,24,21.7,61.6,10.2c2.8-0.9,5.2-1.5,5.3-1.5c0,0,0.5,2.3,1.1,4.9c0.6,2.7,1.9,8,3,12c6.2,21.4,15,36.1,24.5,40.7c2.8,1.4,3.5,1.5,7.1,1.5c3.6,0,4.2-0.1,7.2-1.6c9.6-4.8,18.4-19.7,24.6-41.5c1-3.5,2.3-8.5,2.9-11.3c0.8-4.1,1.2-4.9,1.8-4.7c5.1,1.9,20.5,5.7,28.4,7c7.5,1.2,19.2,1.1,23.9-0.2c6.3-1.7,10-4.1,12-7.9c4.5-8.3,0.8-19.9-11.2-35c-3.7-4.8-14.7-16.1-19.8-20.5l-2.4-2.2l2.4-2.2c5-4.3,16-15.7,19.6-20.2c9-11.4,13.2-20.1,13.2-27.8c0-3.4-0.2-4.2-1.5-6.8c-2.2-4.4-5.7-6.9-12.3-8.6c-10.7-2.7-27.7-0.8-47.8,5.3c-2.8,0.9-5.2,1.5-5.3,1.5c0,0-0.4-1.8-0.8-3.8c-2.2-10.2-6-22.3-9.7-30.7C144.9,16,133.7,7.1,123.1,10.9z M133.1,16.5c2.9,1.4,7.6,6.3,10.5,11.1c5.7,9.1,10.8,23.3,14.3,39.6l0.8,4l-4,1.5c-6.6,2.5-14.7,6-20.9,8.9l-5.9,2.8l-5.9-2.8c-6.2-2.9-14.3-6.4-21-8.9c-3.5-1.3-4-1.7-3.8-2.5c5-22.6,11.1-38.3,18.5-47.4C121.5,15.7,127.1,13.7,133.1,16.5z M56.7,66.9c2.3,0.1,6,0.6,8.3,1c9.7,1.7,26.1,6.2,26.1,7.3c0,0.3-0.5,4.2-1.2,8.6c-0.6,4.4-1.4,11.7-1.8,16.1c-0.5,5.7-0.9,8.1-1.3,8.4c-1.4,0.8-12,8.4-16.7,12.1c-2.8,2.2-5.2,3.9-5.4,3.9c-0.6,0-8.3-7.1-14.3-13.2c-8.7-9-14.5-17.1-17.9-24.7c-1.4-3.2-1.7-4.5-1.8-7.8c-0.1-3.2,0-4.2,0.7-5.5c1.1-2.1,4.6-4.4,7.9-5.4c2.6-0.7,9.2-1.4,11.8-1.2C52,66.6,54.5,66.8,56.7,66.9z M215,67.5c4.2,0.9,7.9,3,9.3,5.5c0.9,1.6,1,2.3,0.9,5.8c-0.1,3.3-0.4,4.6-1.8,7.8c-3.8,8.7-9.4,16.1-20.9,27.6c-10.1,10-10.9,10.8-12.2,9.8c-0.5-0.4-4.6-3.5-9.1-6.9c-4.6-3.4-9.2-6.9-10.4-7.6c-2.5-1.6-2.3-0.8-3.1-11.3c-0.3-3.4-1-9.8-1.7-14.2c-0.6-4.3-1.1-8.2-1.1-8.6c0-0.8,5.4-2.6,14.1-4.8C194.5,66.6,206.1,65.6,215,67.5z M110.9,82.3c4.4,1.9,8.8,3.8,9.6,4.2l1.6,0.8l-5.7,3c-3.1,1.7-9.6,5.4-14.5,8.3c-4.8,2.9-8.9,5.2-8.9,5.2c-0.3-0.2,1.2-14.2,2.2-20.9c0.5-3.4,0.9-6.3,0.9-6.4C96.2,76.3,103,78.9,110.9,82.3z M159.9,76.6c0,0.1,0.4,3,0.9,6.4c1,6.9,2.5,20.7,2.3,20.9c-0.1,0.1-3-1.6-6.4-3.6c-3.5-2.1-9.7-5.7-13.8-8c-4.2-2.3-7.9-4.4-8.3-4.6c-0.7-0.4,7-4,18.6-8.7C159.2,76.5,159.9,76.2,159.9,76.6z M132.3,92.4c6.2,3.1,14.8,8,23.4,13.4l7.7,4.8l0.3,5.6c0.4,7.2,0.4,18.3,0,24.5l-0.3,4.9l-5.4,3.4c-9.9,6.3-28.8,16.9-30.1,16.9c-1.2,0-20.3-10.8-30-16.9l-5.4-3.4l-0.3-4.9c-0.4-6.3-0.4-18.3,0-25l0.3-5.2l5.4-3.4c7.2-4.6,16.6-10,23.8-13.8c3.3-1.7,6-3.1,6.1-3.1C128,90.3,130,91.2,132.3,92.4z M87,128.1c-0.1,13.4-0.1,13.4-1.1,12.9c-0.6-0.3-4.3-3-8.4-6.1c-9.1-6.9-8.9-6.7-8.6-6.9c0.1-0.1,1.7-1.3,3.4-2.7c4.2-3.4,14.1-10.5,14.4-10.5C87,114.7,87.1,120.8,87,128.1z M174.7,118.5c6.6,4.8,12.3,9.3,12.3,9.6c0,0.5-17.2,13.4-17.9,13.4c-0.1,0-0.3-6-0.3-13.4c0-7.4,0.1-13.4,0.3-13.4C169.3,114.7,171.8,116.4,174.7,118.5z M69.7,135.4c4.2,3.4,15.5,11.6,17,12.5c0.5,0.2,0.9,2.5,1.4,8.6c0.4,4.6,1.2,11.9,1.8,16.2c0.6,4.3,1.2,8.1,1.2,8.4c0,0.8-11.1,4.2-20.1,6.1c-7.7,1.6-13.5,2.3-20.3,2.3c-10,0-15.7-1.7-18.6-5.4c-1.1-1.4-1.3-2.3-1.4-5.1c-0.5-8.4,6.3-20.1,19.7-34c5.4-5.6,13.7-13.3,14.3-13.3C64.9,131.8,67.2,133.4,69.7,135.4z M195.9,135.6c15.6,14,26.9,29,29,38.7c0.9,3.9,0.5,7.8-1,9.7c-1.6,2-5.2,4-9,4.8c-4.1,0.9-14.7,0.9-20.7,0c-11.3-1.6-29.3-6.4-29.3-7.8c0-0.3,0.4-3.3,0.9-6.6c0.5-3.3,1.2-9.5,1.7-13.8c0.4-4.3,0.8-8.9,1-10.1c0.2-2.2,0.4-2.4,2.3-3.6c2.4-1.5,14.2-10.2,17.6-13.1c1.4-1.1,2.6-2,2.9-2C191.4,131.8,193.5,133.5,195.9,135.6z M103.1,158.2c4.4,2.7,10.6,6.2,13.6,7.8l5.5,3l-4.8,2.3c-5.6,2.6-20.8,8.7-21,8.5c-0.5-0.5-3.4-23.6-3.4-26.9c0-0.7,0.1-0.7,1.1-0.1C94.6,153.1,98.7,155.5,103.1,158.2z M162.4,160c-0.7,7.4-2.4,19.3-2.7,19.6c-0.2,0.2-15.7-6-21.2-8.5l-4.7-2.2l6.4-3.4c3.6-1.9,10.1-5.6,14.5-8.4c4.5-2.7,8.2-4.9,8.3-4.8C163.1,152.4,162.8,155.9,162.4,160z M132.2,173.8c4.5,2.3,18.3,8.1,23.1,9.9l3.6,1.3l-1.2,5.1c-3.4,16-9.1,31.1-14.9,40c-2.7,4-7.1,8.4-9.9,9.7c-3,1.5-6.6,1.5-9.5,0.1c-10.2-5-19.9-25-26-53.9c-0.2-0.8,0.4-1.2,4.5-2.7c6.2-2.4,18.2-7.5,22.2-9.6c1.8-0.9,3.5-1.7,3.8-1.7C128.3,171.9,130.1,172.8,132.2,173.8z"/><path fill="#000000" d="M122.9,113.6c-4.3,1.6-7.9,5.3-9.4,9.5c-1,2.8-0.9,7.7,0.3,10.8c1.3,3.6,5,7.2,8.6,8.5c3.6,1.4,9,1.2,12.4-0.5c2.9-1.4,5.7-4.2,7.2-7.2c0.9-1.9,1.1-3,1.1-6.7c0-3.7-0.2-4.8-1.1-6.7c-1.5-2.9-4.3-5.7-7.2-7.2C131.9,112.9,125.6,112.5,122.9,113.6z"/></g></g></g>
</svg>