<?xml version="1.0" standalone="no"?>
<!DOCTYPE svg PUBLIC "-//W3C//DTD SVG 20010904//EN"
 "http://www.w3.org/TR/2001/REC-SVG-20010904/DTD/svg10.dtd">
<svg version="1.0" xmlns="http://www.w3.org/2000/svg"
 width="1080.000000pt" height="1080.000000pt" viewBox="0 0 1080.000000 1080.000000"
 preserveAspectRatio="xMidYMid meet">

<g transform="translate(0.000000,1080.000000) scale(0.100000,-0.100000)"
fill="#000000" stroke="none">
<path d="M3133 9465 c-23 -14 -52 -42 -65 -63 l-23 -37 -3 -1974 c-1 -1338 1
-1986 8 -2012 12 -45 51 -94 91 -114 15 -8 52 -15 81 -15 62 0 103 21 144 76
l29 37 3 1884 2 1883 3260 0 3260 0 0 -2015 0 -2015 -2337 0 c-1571 0 -2353
-4 -2383 -11 -93 -21 -159 -108 -146 -193 9 -56 48 -112 96 -136 39 -20 51
-20 2511 -20 l2472 0 41 24 c24 14 52 42 66 68 l25 43 3 2210 c2 1563 -1 2225
-9 2263 -11 57 -45 104 -90 127 -24 13 -472 15 -3511 15 l-3483 0 -42 -25z"/>
<path d="M4700 8544 c-53 -23 -89 -63 -104 -115 -23 -78 0 -142 71 -196 l36
-28 2207 0 2206 0 42 28 c74 48 100 133 66 215 -18 47 -46 72 -102 95 -39 16
-195 17 -2215 17 -1918 -1 -2176 -3 -2207 -16z"/>
<path d="M1398 7381 c-186 -41 -325 -118 -468 -261 -199 -199 -283 -402 -282
-680 0 -194 48 -353 157 -522 133 -205 344 -346 615 -409 81 -19 289 -17 379
4 381 90 660 373 736 747 26 126 17 333 -19 453 -79 263 -257 473 -501 593
-133 65 -223 86 -390 90 -111 3 -158 0 -227 -15z"/>
<path d="M5990 7282 c-27 -13 -174 -199 -641 -812 l-606 -795 -114 0 c-103 0
-119 -3 -169 -27 -38 -18 -187 -141 -470 -387 -228 -199 -422 -361 -431 -361
-8 0 -386 76 -840 169 -453 92 -861 174 -907 180 -508 73 -964 -134 -1146
-520 -76 -160 -71 -41 -71 -1604 l0 -1400 998 -3 997 -2 0 1313 c0 723 2 1316
5 1319 3 3 238 -42 523 -99 411 -83 529 -103 574 -99 113 8 148 33 638 456
250 216 481 417 513 449 35 34 70 81 90 121 28 57 32 74 32 150 0 70 -4 95
-26 140 l-25 55 608 785 c335 432 615 797 623 812 35 65 4 149 -62 167 -50 14
-52 14 -93 -7z"/>
<path d="M6845 7291 c-76 -19 -120 -58 -140 -123 -33 -112 28 -206 147 -228
36 -7 440 -9 1149 -8 1084 3 1094 3 1133 24 57 30 97 83 103 138 8 66 -32 143
-89 177 l-43 24 -1115 2 c-613 1 -1128 -2 -1145 -6z"/>
<path d="M6294 5931 c-94 -43 -132 -157 -81 -243 15 -26 42 -53 69 -68 l43
-25 1373 -3 c951 -1 1386 1 1413 8 86 23 150 115 135 193 -10 51 -61 116 -109
138 -41 18 -87 19 -1422 19 -1326 0 -1382 -1 -1421 -19z"/>
<path d="M5450 4373 c-14 -2 -58 -11 -97 -19 -304 -64 -551 -306 -634 -619
-30 -111 -29 -297 0 -409 115 -436 543 -707 983 -622 327 63 588 318 663 648
21 92 21 259 2 354 -61 286 -279 532 -556 624 -122 41 -267 58 -361 43z"/>
<path d="M8585 4370 c-422 -67 -725 -417 -725 -840 0 -315 181 -608 461 -748
130 -65 194 -82 337 -89 241 -12 448 62 619 221 185 172 284 414 270 661 -25
438 -369 778 -807 799 -52 3 -122 1 -155 -4z"/>
<path d="M5380 2501 c-361 -39 -666 -200 -816 -431 -54 -84 -91 -194 -96 -285
l-3 -70 1083 -3 1082 -2 0 52 c-1 267 -250 539 -610 666 -181 63 -445 93 -640
73z"/>
<path d="M8540 2500 c-375 -42 -683 -212 -829 -458 -46 -76 -81 -198 -81 -279
l0 -53 1085 0 1085 0 0 38 c0 66 -28 172 -65 246 -118 239 -393 418 -748 487
-115 22 -335 32 -447 19z"/>
</g>
</svg>
