<?xml version="1.0" standalone="no"?>
<!DOCTYPE svg PUBLIC "-//W3C//DTD SVG 20010904//EN"
 "http://www.w3.org/TR/2001/REC-SVG-20010904/DTD/svg10.dtd">
<svg version="1.0" xmlns="http://www.w3.org/2000/svg"
 width="512.000000pt" height="512.000000pt" viewBox="0 0 512.000000 512.000000"
 preserveAspectRatio="xMidYMid meet">

<g transform="translate(0.000000,512.000000) scale(0.100000,-0.100000)"
fill="#000000" stroke="none">
<path d="M2725 5096 c-394 -66 -714 -297 -888 -643 l-37 -72 -87 44 c-129 65
-194 80 -348 80 -151 -1 -218 -16 -340 -75 -313 -154 -486 -518 -406 -852 l18
-76 -73 -37 c-358 -176 -584 -568 -561 -969 22 -367 237 -695 564 -858 91 -45
106 -50 135 -42 22 7 39 21 52 45 30 55 10 84 -94 139 -196 104 -306 213 -399
395 -65 127 -84 215 -84 380 0 123 3 150 26 228 43 140 102 243 207 359 64 72
202 164 300 202 129 50 140 73 94 200 -56 152 -40 347 41 491 184 327 616 406
906 164 56 -47 87 -55 127 -35 21 11 35 30 47 63 60 166 141 297 251 408 317
316 791 393 1186 191 294 -150 496 -426 548 -748 12 -73 9 -248 -6 -393 -5
-55 -4 -62 19 -84 23 -21 40 -24 144 -32 65 -4 144 -15 177 -24 500 -132 797
-631 676 -1134 -64 -263 -249 -493 -500 -621 -55 -28 -69 -46 -70 -88 0 -43
38 -82 80 -82 53 0 193 82 312 183 190 162 330 424 368 692 36 254 -28 530
-175 750 -175 263 -433 430 -750 485 -66 12 -99 22 -97 30 9 40 0 288 -13 364
-42 240 -155 456 -330 632 -168 168 -374 280 -610 329 -108 22 -309 28 -410
11z"/>
<path d="M965 3205 l-25 -24 0 -458 c1 -483 0 -476 47 -501 30 -17 3111 -17
3146 -1 14 6 30 22 36 36 8 16 11 165 11 472 l0 448 -25 27 -24 26 -1571 0
-1571 0 -24 -25z m3045 -485 l0 -340 -1450 0 -1450 0 0 340 0 340 1450 0 1450
0 0 -340z"/>
<path d="M1495 2974 c-61 -15 -92 -30 -127 -62 -174 -158 -67 -442 166 -442
139 0 241 94 253 232 13 137 -87 256 -227 271 -25 3 -54 3 -65 1z m105 -202
c55 -69 -20 -158 -105 -126 -19 8 -45 55 -45 82 0 11 9 31 20 45 33 42 97 42
130 -1z"/>
<path d="M1960 2895 l0 -85 85 0 85 0 0 85 0 85 -85 0 -85 0 0 -85z"/>
<path d="M2300 2895 l0 -85 85 0 85 0 0 85 0 85 -85 0 -85 0 0 -85z"/>
<path d="M2647 2974 c-4 -4 -7 -43 -7 -86 l0 -78 90 0 91 0 -3 83 -3 82 -80 3
c-45 1 -84 0 -88 -4z"/>
<path d="M2990 2895 l0 -85 85 0 86 0 -3 83 -3 82 -82 3 -83 3 0 -86z"/>
<path d="M3330 2895 l0 -85 85 0 85 0 0 85 0 85 -85 0 -85 0 0 -85z"/>
<path d="M3670 2895 l0 -85 85 0 85 0 0 85 0 85 -85 0 -85 0 0 -85z"/>
<path d="M1960 2555 l0 -85 85 0 85 0 0 85 0 85 -85 0 -85 0 0 -85z"/>
<path d="M2307 2633 c-4 -3 -7 -42 -7 -85 l0 -78 85 0 85 0 0 85 0 85 -78 0
c-43 0 -82 -3 -85 -7z"/>
<path d="M2647 2634 c-4 -4 -7 -43 -7 -86 l0 -78 90 0 91 0 -3 83 -3 82 -80 3
c-45 1 -84 0 -88 -4z"/>
<path d="M2990 2555 l0 -85 85 0 86 0 -3 83 -3 82 -82 3 -83 3 0 -86z"/>
<path d="M3330 2555 l0 -85 85 0 86 0 -3 83 -3 82 -82 3 -83 3 0 -86z"/>
<path d="M3670 2555 l0 -85 85 0 85 0 0 85 0 85 -85 0 -85 0 0 -85z"/>
<path d="M965 2095 l-25 -24 0 -458 c1 -483 0 -476 47 -501 16 -9 414 -12
1578 -12 l1557 0 29 29 29 29 0 457 0 456 -25 24 -24 25 -1571 0 -1571 0 -24
-25z m3045 -485 l0 -340 -1450 0 -1450 0 0 340 0 340 1450 0 1450 0 0 -340z"/>
<path d="M1452 1851 c-212 -73 -230 -365 -30 -465 171 -85 368 40 368 233 0
100 -82 206 -181 235 -67 20 -92 20 -157 -3z m146 -187 c12 -14 22 -34 22 -45
0 -28 -26 -75 -45 -83 -75 -29 -151 47 -114 113 31 55 95 62 137 15z"/>
<path d="M1960 1785 l0 -85 85 0 85 0 0 85 0 85 -85 0 -85 0 0 -85z"/>
<path d="M2300 1785 l0 -85 85 0 85 0 0 85 0 85 -85 0 -85 0 0 -85z"/>
<path d="M2647 1864 c-4 -4 -7 -43 -7 -86 l0 -78 90 0 91 0 -3 83 -3 82 -80 3
c-45 1 -84 0 -88 -4z"/>
<path d="M2990 1785 l0 -85 85 0 85 0 0 85 0 85 -85 0 -85 0 0 -85z"/>
<path d="M3330 1785 l0 -85 85 0 85 0 0 85 0 85 -85 0 -85 0 0 -85z"/>
<path d="M3670 1785 l0 -85 85 0 85 0 0 85 0 85 -85 0 -85 0 0 -85z"/>
<path d="M1960 1445 l0 -85 85 0 85 0 0 85 0 85 -85 0 -85 0 0 -85z"/>
<path d="M2307 1523 c-4 -3 -7 -42 -7 -85 l0 -78 85 0 85 0 0 85 0 85 -78 0
c-43 0 -82 -3 -85 -7z"/>
<path d="M2647 1524 c-4 -4 -7 -43 -7 -86 l0 -78 90 0 91 0 -3 83 -3 82 -80 3
c-45 1 -84 0 -88 -4z"/>
<path d="M2990 1445 l0 -85 85 0 86 0 -3 83 -3 82 -82 3 -83 3 0 -86z"/>
<path d="M3330 1445 l0 -85 85 0 85 0 0 85 0 85 -85 0 -85 0 0 -85z"/>
<path d="M3670 1445 l0 -85 85 0 85 0 0 85 0 85 -85 0 -85 0 0 -85z"/>
<path d="M965 985 l-25 -24 0 -459 c0 -447 0 -459 20 -480 l21 -22 1579 0
1579 0 20 26 c21 26 21 37 21 481 l0 454 -25 24 -24 25 -1571 0 -1571 0 -24
-25z m3045 -485 l0 -340 -1450 0 -1450 0 0 340 0 340 1450 0 1450 0 0 -340z"/>
<path d="M1452 741 c-212 -73 -230 -365 -30 -465 171 -85 368 40 368 233 0
100 -82 206 -181 235 -67 20 -92 20 -157 -3z m146 -187 c47 -53 9 -133 -64
-134 -58 0 -101 69 -73 119 31 55 95 62 137 15z"/>
<path d="M1960 675 l0 -85 85 0 85 0 0 85 0 85 -85 0 -85 0 0 -85z"/>
<path d="M2300 675 l0 -85 85 0 85 0 0 85 0 85 -85 0 -85 0 0 -85z"/>
<path d="M2647 754 c-4 -4 -7 -43 -7 -86 l0 -78 90 0 91 0 -3 83 -3 82 -80 3
c-45 1 -84 0 -88 -4z"/>
<path d="M2990 675 l0 -85 85 0 85 0 0 85 0 85 -85 0 -85 0 0 -85z"/>
<path d="M3330 675 l0 -85 85 0 85 0 0 85 0 85 -85 0 -85 0 0 -85z"/>
<path d="M3670 675 l0 -85 85 0 85 0 0 85 0 85 -85 0 -85 0 0 -85z"/>
<path d="M1960 335 l0 -85 85 0 85 0 0 85 0 85 -85 0 -85 0 0 -85z"/>
<path d="M2300 335 l0 -85 85 0 85 0 0 85 0 85 -85 0 -85 0 0 -85z"/>
<path d="M2647 414 c-4 -4 -7 -43 -7 -86 l0 -78 90 0 91 0 -3 83 -3 82 -80 3
c-45 1 -84 0 -88 -4z"/>
<path d="M2990 335 l0 -85 85 0 86 0 -3 83 -3 82 -82 3 -83 3 0 -86z"/>
<path d="M3330 335 l0 -85 85 0 85 0 0 85 0 85 -85 0 -85 0 0 -85z"/>
<path d="M3670 335 l0 -85 85 0 85 0 0 85 0 85 -85 0 -85 0 0 -85z"/>
</g>
</svg>
