<?xml version="1.0" encoding="utf-8"?>
<!-- Svg Vector Icons : http://www.onlinewebfonts.com/icon -->
<!DOCTYPE svg PUBLIC "-//W3C//DTD SVG 1.1//EN" "http://www.w3.org/Graphics/SVG/1.1/DTD/svg11.dtd">
<svg version="1.1" xmlns="http://www.w3.org/2000/svg" xmlns:xlink="http://www.w3.org/1999/xlink" x="0px" y="0px" viewBox="0 0 256 256" enable-background="new 0 0 256 256" xml:space="preserve">
<metadata> Svg Vector Icons : http://www.onlinewebfonts.com/icon </metadata>
<g><g><g><path fill="#000000" d="M10,21.4v11.4h5.7h5.7v79.9v79.9h7.8H37l0.6,2c1.6,5.3,6,11.1,10.6,13.7l2.2,1.3l-3.1,1.6c-4.2,2.1-8.9,6.9-11.2,11.3c-2.4,4.6-3.2,8.5-3.2,16.6v6.8h26.7h26.7l-0.2-8.2c-0.2-8.9-0.9-11.6-3.9-16.8c-2-3.3-6.8-7.9-10.4-9.8l-3.1-1.6l2.2-1.3c4.5-2.6,9-8.4,10.6-13.7l0.6-2h11.8h11.8l0.6,2c1.6,5.3,6,11.1,10.6,13.7l2.2,1.3l-3.1,1.6c-3.6,1.9-8.4,6.5-10.4,9.8c-3.1,5.2-3.7,7.9-3.9,16.8l-0.2,8.2H128h26.7l-0.2-8.2c-0.2-8.9-0.9-11.5-3.9-16.7c-2-3.3-6.8-7.9-10.4-9.8l-3.1-1.6l2.2-1.3c4.5-2.6,9-8.4,10.6-13.7l0.6-2h11.8H174l0.6,2c1.6,5.3,6,11.1,10.6,13.7l2.2,1.3l-3.1,1.6c-3.6,1.9-8.4,6.5-10.4,9.8c-3.1,5.2-3.7,7.9-3.9,16.7l-0.2,8.2h26.7h26.7v-6.6c0-8.2-0.5-11.2-2.9-16.1c-2.3-4.9-6.9-9.7-11.5-12l-3.1-1.6l2.2-1.3c5.4-3.1,10.1-9.9,11.2-16.4c1.8-10.3-5.9-21.8-16.7-25l-2-0.6V145c0-11.7-0.1-21.3-0.3-21.3c-0.1,0-5.4,2.2-11.6,5c-6.2,2.8-11.9,5-12.6,5s-1.9-0.3-2.6-0.7c-0.7-0.4-6.2-5.6-12.2-11.7c-9.6-9.6-10.9-11.1-10.9-12.4c0-2,2.4-4.4,4.4-4.4c1.3,0,2.8,1.2,11.8,10.3l10.4,10.4l14.9-9.8l14.9-9.7l4.4,4.3l4.4,4.3v14.4v14.4h3.8h3.8v-14.4v-14.4l4.3-4.3l4.3-4.2l1.4,1.3c0.8,0.7,2,2.4,2.7,3.7c2.6,4.8,2.6,4.9,2.6,36.9v29.6h3.8h3.8v-29.2c0-32.4,0-33-3.1-39.3c-2.2-4.4-8.1-10.6-11.9-12.3l-2.5-1.1l2.3-1.3c5.4-3.1,10.1-9.9,11.2-16.4c1-5.8-1.2-13-5.3-17.5l-2-2.1V45.5V32.8h5.7h5.7V21.4V10H128H10V21.4z M238.4,21.4v3.8H128H17.6v-3.8v-3.8H128h110.4V21.4z M227,43.1c0,9.6,0,10.3-0.8,9.9c-0.5-0.2-2.2-0.6-3.8-0.9c-13.7-2.4-27.9,11.8-25.5,25.6c1.1,6.3,5.7,13.2,11,16.3l2,1.2l-1.8,1c-1,0.5-8.2,5-15.9,10.1l-14.1,9.1l-7.8-7.8c-9.5-9.5-10.9-10.3-16.6-10.1l-3.8,0.2l-4.3-6.6c-2.4-3.6-4.3-6.8-4.2-6.9c0.1-0.2,3.8-4.4,8.2-9.3c6.8-7.5,8.2-8.8,9-8.6c4.7,1.4,7.7,0.6,11.2-3c5.1-5.1,5.1-10.2,0-15.3c-4.9-4.9-10.6-4.9-15.4-0.1c-3.2,3.1-4.3,7.1-3,10.8l0.7,2.1l-7.4,8.2c-4.1,4.6-7.6,8.3-7.7,8.4c-0.1,0.1-1.5-1.8-3.1-4.1l-2.8-4.3l-1.8,1c-1,0.6-2.4,1.5-3.1,2.1c-1.3,1-1.3,1.1-0.5,2.3c0.4,0.7,2,3,3.4,5.2l2.6,4l-3.4,3.7l-3.4,3.7l-2.2-0.6c-1.9-0.5-2.7-0.5-4.7,0l-2.4,0.6l-9.5-9.5L96.5,72l0.6-2.4c0.8-3,0.1-6.1-1.9-8.6c-3.4-4.2-7.4-5.9-11.3-4.9c-5.8,1.6-10.2,8-8.8,13c0.3,1.1,0.7,2.4,0.8,2.8c0.2,0.5-3.9,6-11.6,15.6c-10.8,13.4-12,14.8-13,14.5c-1.8-0.7-5.7-0.4-7.5,0.5c-3.5,1.7-6.3,5.5-6.9,9.1c-0.9,5.5,5.5,12.6,11.3,12.6c2.6,0,5-1.2,7.6-3.8c3.7-3.7,4.6-6.8,3.1-10.9c-0.4-1.2-0.5-2.3-0.3-2.6c0.3-0.4,22.4-28.2,23.2-29.2c0,0,1.1,0.1,2.3,0.5c1.8,0.5,2.7,0.4,4.7,0l2.4-0.6l9.5,9.4c8.3,8.3,9.4,9.6,9.2,10.7c-0.8,3.5-0.8,4.5-0.2,6.5c0.4,1.7,1.3,3,3.2,4.9c5.1,5.1,10.2,5.1,15.3,0c3.7-3.6,4.6-6.8,3.1-10.8l-0.7-2l2.8-3l2.8-3l4.2,6.4c4.1,6.3,4.1,6.4,3.6,8.1c-0.3,1-0.5,3-0.5,4.6c0,4.8,1.1,6.3,13.2,18.3c12.7,12.7,13.2,13,19.8,12.9c4.1,0,4.5-0.1,9.3-2.3c2.8-1.2,5.5-2.5,6.1-2.7l1-0.4v15.7v15.6l-2,0.6c-7.4,2.2-13.9,8.7-16.1,16l-0.6,2h-11.8h-11.8l-0.6-2c-2.5-8.3-10.2-15.2-18.8-16.7c-10.3-1.8-21.8,5.9-25,16.7l-0.6,2H93.7H82l-0.6-2c-2.5-8.3-10.2-15.2-18.8-16.7c-10.3-1.8-21.8,5.9-25,16.7l-0.6,2h-4H29V109V32.8h99h99V43.1z M165.1,52.8c0.6,0.6,1,1.6,1,2.9s-0.3,2.2-1,2.9c-0.6,0.6-1.6,1-2.9,1c-1.3,0-2.2-0.3-2.9-1c-0.6-0.6-1-1.6-1-2.9c0-1.3,0.3-2.2,1-2.9c0.6-0.6,1.6-1,2.9-1C163.5,51.9,164.5,52.2,165.1,52.8z M226.3,60.9c3,1.4,5.5,3.9,6.9,6.9c1,2,1.1,3,1.1,6.9c0,5.2-1,7.9-4,10.9c-3,3-5.8,4-10.9,4c-3.8,0-4.9-0.2-6.9-1.1c-4.9-2.4-7.9-6.9-8.3-12.4c-0.5-7.6,3-13.5,9.7-15.8C217.3,59.1,223.1,59.4,226.3,60.9z M89,64.2c0.6,0.6,1,1.6,1,2.9c0,2.5-1.3,3.8-3.8,3.8c-2.5,0-3.8-1.3-3.8-3.8c0-1.3,0.3-2.2,1-2.9c0.6-0.6,1.6-1,2.9-1C87.4,63.3,88.4,63.6,89,64.2z M123.2,98.5c0.6,0.6,1,1.6,1,2.9c0,2.5-1.3,3.8-3.8,3.8c-2.5,0-3.8-1.3-3.8-3.8c0-1.3,0.3-2.2,1-2.9s1.6-1,2.9-1S122.6,97.9,123.2,98.5z M223.5,101.7c1,0.3,1,0.5-1.6,3l-2.6,2.6l-2.6-2.6c-2.5-2.5-2.6-2.6-1.6-3c0.6-0.1,2.5-0.3,4.2-0.3C221.1,101.5,222.9,101.6,223.5,101.7z M50.9,109.9c0.6,0.6,1,1.6,1,2.9c0,2.5-1.3,3.8-3.8,3.8c-2.5,0-3.8-1.3-3.8-3.8c0-2.5,1.3-3.8,3.8-3.8C49.3,109,50.3,109.3,50.9,109.9z M66.4,175.1c2.9,1.4,5.5,3.9,6.9,6.9c1,2,1.1,3,1.1,6.9c0,5.2-1,7.9-4,10.9c-3,3-5.8,4-10.9,4c-3.9,0-4.9-0.2-6.9-1.1c-4.9-2.4-7.9-6.9-8.3-12.4c-0.5-7.6,3-13.5,9.7-15.8C57.4,173.3,63.2,173.6,66.4,175.1z M134.9,175.1c3,1.4,5.5,3.9,6.9,6.9c1,2,1.1,3,1.1,6.9c0,5.2-1,7.9-4,10.9c-3,3-5.8,4-10.9,4c-3.8,0-4.9-0.2-6.9-1.1c-4.9-2.4-7.9-6.9-8.3-12.4c-0.5-7.6,3-13.5,9.7-15.8C125.9,173.3,131.7,173.6,134.9,175.1z M203.4,175.1c3,1.4,5.4,3.9,6.9,6.9c1,2,1.2,3.1,1.2,6.9c0,5.2-1,7.9-4,10.9c-3,3-5.8,4-10.9,4c-5.2,0-7.9-1-10.9-4c-3.6-3.6-5.1-9.8-3.9-15.1c1.2-4.8,5.1-8.9,9.8-10.4C194.5,173.3,200.6,173.7,203.4,175.1z M66.6,216.7c5,1.8,9.8,7.1,11.2,12.4c0.4,1.5,0.7,4.3,0.7,6v3.2h-19h-19v-3.6c0-8.7,4.5-15.3,12.5-18.2c2.5-0.9,3.6-1,7.2-0.9C62.6,215.8,65.4,216.3,66.6,216.7z M134.2,216.5c7.9,2.4,12.8,9.7,12.8,18.7v3.2h-19h-19v-3.6c0-4.4,1.3-8.6,3.6-11.8C117.2,216.7,126.2,214,134.2,216.5z M202.8,216.5c5.4,1.8,9.4,5.5,11.5,10.8c0.5,1.4,1,4,1.1,6.6l0.2,4.4h-19.1h-19.1v-3.5c0-11.2,7.8-19.2,18.9-19.3C198.7,215.5,200.8,215.9,202.8,216.5z"/><path fill="#000000" d="M70.9,135.6v3.8h30.5h30.5v-3.8v-3.8h-30.5H70.9V135.6z"/><path fill="#000000" d="M82.3,150.8v3.8h24.7h24.7v-3.8V147h-24.7H82.3V150.8z"/></g></g></g>
</svg>